# xmcd
#
# Track frame offsets:
#	150
#	13176
#	25516
#	35999
#	51168
#	63963
#	75387
#	93854
#	122097
#	131616
#	142166
#	152226
#	172530
#	183666
#	202319
#	213570
#	221904
#
# Disc length: 3126 seconds
#
# Revision: 2
# Processed by: cddbd v1.5.2PL0 Copyright (c) Steve Scherf et al.
# Submitted via: audiograbber 1.83.01
#
DISCID=f90c3411
DTITLE=Various Artist - Country, unlimited collection [CD 4)
DYEAR=1900
DGENRE=Country
TTITLE0=Johnny Cash - Wanted man
TTITLE1=Johnny Cash - I walk the line
TTITLE2=Johnny Cash - You win again
TTITLE3=Johnny Cash - Darlin companion [live]
TTITLE4=Johnny Cash - Folsom Prison blues
TTITLE5=Johnny Cash - There'll be peace in the valley [live]
TTITLE6=Johnny Cash - San Quentin [live]
TTITLE7=Johnny Cash - Starkville City jail [live]
TTITLE8=Johnny Cash - Wreck of the old 97 [live]
TTITLE9=Johnny Cash - Daddy sang bass
TTITLE10=Johnny Cash - Get rhythm
TTITLE11=Johnny Cash - Banks of the Ohio
TTITLE12=Johnny Cash and The Tennessee Two - Mean eyed cat
TTITLE13=Johnny Cash - Sunday morning coming down
TTITLE14=Johnny Cash - Don't make me go
TTITLE15=Johnny Cash and The Tennessee Two - Wreck of the old 97
TTITLE16=Johnny Cash - Next in line
EXTD=
EXTT0=
EXTT1=
EXTT2=
EXTT3=
EXTT4=
EXTT5=
EXTT6=
EXTT7=
EXTT8=
EXTT9=
EXTT10=
EXTT11=
EXTT12=
EXTT13=
EXTT14=
EXTT15=
EXTT16=
PLAYORDER=
